<?xml version="1.0" standalone="no"?>
<!DOCTYPE svg PUBLIC "-//W3C//DTD SVG 20010904//EN"
 "http://www.w3.org/TR/2001/REC-SVG-20010904/DTD/svg10.dtd">
<svg version="1.0" xmlns="http://www.w3.org/2000/svg"
 width="78.000000pt" height="76.000000pt" viewBox="0 0 78.000000 76.000000"
 preserveAspectRatio="xMidYMid meet">

<g transform="translate(0.000000,76.000000) scale(0.100000,-0.100000)"
fill="#000000" stroke="none">
<path d="M230 629 c-14 -6 -36 -20 -48 -32 -47 -43 -52 -67 -52 -227 0 -183
12 -219 86 -252 40 -17 63 -19 199 -16 171 3 189 10 230 79 18 30 20 52 20
189 0 181 -10 209 -85 248 -40 20 -58 22 -185 21 -77 0 -151 -5 -165 -10z
m351 -24 c60 -31 69 -62 69 -235 0 -136 -2 -159 -20 -187 -34 -56 -63 -68
-164 -68 l-91 0 -3 108 -3 107 61 0 c33 0 60 4 60 10 0 6 -27 10 -61 10 l-61
0 7 37 c11 58 22 71 73 87 38 12 42 15 19 15 -62 2 -107 -47 -107 -115 0 -19
-5 -24 -25 -24 -14 0 -25 -4 -25 -10 0 -5 11 -10 25 -10 l25 0 0 -110 0 -110
-45 0 c-61 0 -121 26 -148 64 -20 28 -22 45 -26 170 -4 163 5 202 54 245 l36
31 160 0 c125 0 167 -3 190 -15z"/>
</g>
</svg>
