<?xml version="1.0" standalone="no"?>
<!DOCTYPE svg PUBLIC "-//W3C//DTD SVG 20010904//EN"
 "http://www.w3.org/TR/2001/REC-SVG-20010904/DTD/svg10.dtd">
<svg version="1.0" xmlns="http://www.w3.org/2000/svg"
 width="82.000000pt" height="82.000000pt" viewBox="0 0 82.000000 82.000000"
 preserveAspectRatio="xMidYMid meet">

<g transform="translate(0.000000,82.000000) scale(0.100000,-0.100000)"
fill="#000000" stroke="none">
<path d="M245 650 c-75 -38 -80 -53 -83 -245 -3 -164 -2 -171 20 -204 42 -62
74 -71 243 -71 169 0 201 9 243 70 21 31 22 43 22 194 0 188 -9 215 -80 253
-39 21 -57 23 -184 23 -122 0 -146 -3 -181 -20z m370 -20 c55 -34 65 -69 65
-229 0 -161 -9 -195 -61 -232 -32 -22 -45 -24 -179 -27 -135 -3 -148 -2 -190
20 -70 36 -80 65 -80 238 0 162 9 193 65 230 27 18 48 20 189 20 142 0 162 -2
191 -20z"/>
<path d="M374 510 c-30 -12 -62 -56 -70 -95 -7 -42 24 -106 61 -123 64 -29
141 -6 169 52 20 42 20 69 1 106 -31 61 -98 86 -161 60z m129 -38 c49 -50 34
-142 -29 -170 -76 -35 -153 13 -154 94 0 101 111 148 183 76z"/>
</g>
</svg>
