<?xml version="1.0" standalone="no"?>
<!DOCTYPE svg PUBLIC "-//W3C//DTD SVG 20010904//EN"
 "http://www.w3.org/TR/2001/REC-SVG-20010904/DTD/svg10.dtd">
<svg version="1.0" xmlns="http://www.w3.org/2000/svg"
 width="75.000000pt" height="70.000000pt" viewBox="0 0 75.000000 70.000000"
 preserveAspectRatio="xMidYMid meet">

<g transform="translate(0.000000,70.000000) scale(0.100000,-0.100000)"
fill="#000000" stroke="none">
<path d="M455 532 c-42 -26 -57 -47 -65 -90 -6 -36 -7 -37 -43 -35 -54 3 -118
34 -160 78 l-37 38 -10 -27 c-5 -15 -10 -59 -10 -98 0 -89 33 -155 98 -200 53
-36 50 -39 -60 -67 l-73 -18 40 -17 c230 -99 474 36 493 274 3 47 13 80 34
118 31 55 27 62 -23 36 -28 -14 -33 -14 -73 5 -52 26 -73 26 -111 3z m111 -14
c36 -18 48 -19 69 -10 30 14 31 7 7 -33 -11 -17 -21 -58 -24 -96 -18 -223
-217 -353 -440 -287 -38 11 -42 28 -7 28 24 0 119 40 119 50 0 4 -10 11 -23
17 -42 19 -90 67 -108 108 -19 41 -25 151 -10 188 6 16 9 16 31 -9 35 -37 113
-74 171 -81 l49 -6 0 37 c0 46 25 85 65 102 41 18 51 17 101 -8z"/>
</g>
</svg>
