<?xml version="1.0" standalone="no"?>
<!DOCTYPE svg PUBLIC "-//W3C//DTD SVG 20010904//EN"
 "http://www.w3.org/TR/2001/REC-SVG-20010904/DTD/svg10.dtd">
<svg version="1.0" xmlns="http://www.w3.org/2000/svg"
 width="37.000000pt" height="36.000000pt" viewBox="0 0 37.000000 36.000000"
 preserveAspectRatio="xMidYMid meet">

<g transform="translate(0.000000,36.000000) scale(0.100000,-0.100000)"
fill="#000000" stroke="none">
<path d="M82 263 c44 -45 57 -66 60 -93 3 -32 6 -35 38 -38 27 -3 48 -16 93
-60 32 -31 57 -50 57 -42 0 20 -271 290 -290 290 -8 0 11 -26 42 -57z m98 -98
c7 -9 10 -18 7 -22 -8 -7 -37 15 -37 28 0 14 16 11 30 -6z"/>
<path d="M155 270 c-23 -10 -23 -10 32 -14 42 -2 120 -46 130 -74 3 -7 -3 -22
-12 -32 -27 -29 -9 -37 20 -10 14 13 25 27 25 31 0 11 -63 70 -90 84 -36 18
-82 25 -105 15z"/>
<path d="M42 207 c-12 -13 -22 -28 -22 -34 0 -16 68 -73 106 -89 39 -16 94
-18 94 -4 0 6 -14 10 -31 10 -40 0 -89 24 -123 59 -26 28 -26 28 -6 46 21 19
26 35 12 35 -5 0 -18 -10 -30 -23z"/>
</g>
</svg>
